<?xml version="1.0" encoding="UTF-8"?><svg width="52px" height="14px" viewBox="0 0 52 14" version="1.1" xmlns="http://www.w3.org/2000/svg" xmlns:xlink="http://www.w3.org/1999/xlink"><title>形状结合@4x</title><g id="页面-1" stroke="none" stroke-width="1" fill="none" fill-rule="evenodd"><g id="获客来源-场景来源" transform="translate(-320.000000, -165.000000)" fill="#FF572A" fill-rule="nonzero"><g id="编组-5" transform="translate(244.000000, 144.000000)"><path d="M87.3750638,21.0323699 L87.2792065,21.6312139 C87.2046509,22.0628131 87.0102736,22.416185 86.6960747,22.6913295 C86.3818759,22.966474 86.0117603,23.1040462 85.5857279,23.1040462 L83.0774624,23.1040462 L81.7354605,32.782659 C81.6396033,33.4300578 81.3573568,33.9587669 80.8887212,34.3687861 C80.4200857,34.7788054 79.871569,34.983815 79.2431713,34.983815 L78.4603368,34.983815 L80.1058868,23.1040462 L76,23.1040462 L76.0958573,22.6508671 C76.1917146,22.1761079 76.4180442,21.7876686 76.7748463,21.4855491 C77.1316484,21.1834297 77.5443673,21.0323699 78.0130029,21.0323699 L87.3750638,21.0323699 Z M94.6835822,21 L95.0238369,21.0059924 C96.8187746,21.0699109 98.2976523,21.6451774 99.46047,22.7317919 C100.685313,23.8863198 101.297734,25.3807322 101.297734,27.2150289 C101.297734,29.5025048 100.573479,31.3637765 99.1249695,32.7988439 C97.6764595,34.2447013 95.8232188,34.9676301 93.5652473,34.9676301 C91.6054985,34.9676301 89.9865755,34.3741811 88.7084785,33.1872832 C87.4303814,31.9895954 86.7913329,30.4736031 86.7913329,28.6393064 C86.7913329,26.4489403 87.5422149,24.6308285 89.043979,23.1849711 C90.5350922,21.7283237 92.4149599,21 94.6835822,21 Z M94.4918677,23.5086705 C93.2031198,23.5086705 92.0901103,23.9996146 91.1528391,24.9815029 C90.2155679,25.9633911 89.7469323,27.139499 89.7469323,28.5098266 C89.7469323,29.6643545 90.1037344,30.6084778 90.8173386,31.3421965 C91.5309428,32.0759152 92.4522378,32.4427746 93.5812235,32.4427746 L93.8447955,32.4363006 C95.0622066,32.3758767 96.103335,31.8924855 96.9681807,30.9861272 C97.8948011,30.0042389 98.3581113,28.8119461 98.3581113,27.4092486 C98.3581113,26.2763006 97.9906584,25.3429672 97.2557525,24.6092486 C96.5314975,23.8755299 95.6102026,23.5086705 94.4918677,23.5086705 Z M109.151219,21 L109.151219,21 C110.439967,21 111.422504,21.1969171 112.098831,21.5907514 C112.775157,21.9845857 113.249118,22.4512524 113.520714,22.9907514 C113.792309,23.5302505 113.944083,24.0319846 113.976036,24.4959538 C114.007988,24.9599229 114.007988,25.2728324 113.976036,25.4346821 C113.922782,25.8339114 113.845563,26.1764933 113.744381,26.4624277 C113.643198,26.7483622 113.5074,27.0423892 113.336987,27.3445087 C112.996161,27.9811175 112.559478,28.5152216 112.026938,28.9468208 C111.483746,29.37842 110.850023,29.7075145 110.125768,29.934104 C109.401513,30.1606936 108.565425,30.2739884 107.617503,30.2739884 L106.435263,30.2739884 L106.083786,32.9606936 C105.99858,33.5541426 105.74296,34.0423892 105.316928,34.4254335 C104.890896,34.8084778 104.390308,35 103.815164,35 L102.936472,35 L104.582022,22.683237 C104.656578,22.1868979 104.872257,21.7822736 105.229059,21.4693642 C105.585861,21.1564547 106.003905,21 106.483192,21 L109.151219,21 Z M110.908603,25.6450867 L110.908603,25.6450867 C110.983158,25.1379576 110.951206,24.7171484 110.812745,24.382659 C110.684936,24.0481696 110.503872,23.805395 110.269554,23.6543353 C110.035236,23.4924855 109.779617,23.3899807 109.502696,23.3468208 C109.225775,23.3036609 108.932878,23.2820809 108.624004,23.2820809 L107.393836,23.2820809 L106.754787,27.9919075 L108.112765,27.9757225 C108.581401,27.9757225 108.980806,27.9109827 109.310981,27.7815029 C109.641157,27.6520231 109.923403,27.4739884 110.157721,27.2473988 C110.392039,27.0208092 110.578428,26.7456647 110.716888,26.4219653 C110.770142,26.3032755 110.810083,26.1899807 110.83671,26.0820809 C110.863337,25.9741811 110.887301,25.8285164 110.908603,25.6450867 Z M126.391434,33.1872832 L127.256418,26.616185 C127.276651,26.4759152 127.243772,26.3518304 127.157779,26.2439306 C127.071787,26.1360308 126.963032,26.0820809 126.831514,26.0820809 L120.105803,26.0820809 L120.545882,23.0027832 L127.347469,23.0027832 C127.46887,23.0027832 127.572567,22.9596233 127.658559,22.8733034 C127.744552,22.7869836 127.797665,22.6790838 127.817898,22.549604 L128,21 L117.890231,21 C117.79918,21 117.723305,21.0296724 117.662604,21.0890173 C117.601904,21.1483622 117.561436,21.2265896 117.541203,21.3236994 L116.023688,32.8959538 C115.942754,33.4786127 116.069213,33.9749518 116.403067,34.3849711 C116.726803,34.7949904 117.161824,35 117.70813,35 L124.46419,35 C124.666526,35 124.868861,34.9622351 125.071196,34.8867052 C125.313999,34.7788054 125.531509,34.6385356 125.723728,34.465896 C125.915946,34.2824663 126.072756,34.0666667 126.194157,33.8184971 C126.295325,33.6242775 126.361084,33.4138728 126.391434,33.1872832 Z M122.597647,33.031933 L119.726424,33.031933 C119.554439,33.031933 119.422921,32.9725882 119.33187,32.8538984 C119.230703,32.7244186 119.190236,32.5733589 119.210469,32.4007192 L119.863001,27.8786127 L123.93306,27.8786127 L123.265354,32.4007192 C123.24512,32.5733589 123.169244,32.7244186 123.037726,32.8538984 C122.906208,32.9725882 122.759515,33.031933 122.597647,33.031933 Z" id="形状结合"/></g></g></g></svg>