<?xml version="1.0" standalone="no"?><!DOCTYPE svg PUBLIC "-//W3C//DTD SVG 1.1//EN" "http://www.w3.org/Graphics/SVG/1.1/DTD/svg11.dtd"><svg t="1701674477975" class="icon" viewBox="0 0 1024 1024" version="1.1" xmlns="http://www.w3.org/2000/svg" p-id="19281" xmlns:xlink="http://www.w3.org/1999/xlink" width="200" height="200"><path d="M512.1 956.08c-238.49 0-432.52-191.76-432.52-427.45 0-104.39 38.48-204.88 108.31-283 19.41-21.68 41.23-41.59 64.87-59.13A431.644 431.644 0 0 1 296 158.26c19.83-11.3 44.97-4.42 56.2 15.33 11.28 19.75 4.42 44.93-15.33 56.2a356.82 356.82 0 0 0-35.06 22.89c-19.13 14.2-36.79 30.29-52.48 47.87-56.36 63-87.37 144.01-87.37 228.09 0 190.27 157.07 345.07 350.14 345.07S862.24 718.9 862.24 528.63c0-84.07-31.02-165.05-87.35-228.09a350.05 350.05 0 0 0-52.54-47.87c-11.14-8.29-22.95-15.97-35.04-22.89-19.75-11.3-26.59-36.45-15.31-56.2 11.3-19.75 36.43-26.67 56.22-15.33a443.807 443.807 0 0 1 43.18 28.2c23.57 17.5 45.42 37.41 64.91 59.17 69.85 78.16 108.31 178.65 108.31 283 0 235.7-194.03 427.46-432.52 427.46z" p-id="19282" fill="#0052D9"></path><path d="M512.1 564.75c-22.75 0-41.19-18.42-41.19-41.19V111.63c0-22.77 18.44-41.19 41.19-41.19s41.19 18.42 41.19 41.19v411.93c0 22.77-18.44 41.19-41.19 41.19z" p-id="19283" fill="#0052D9"></path></svg>